<svg fill="#ffffff" viewBox="-7.5 0 32 32" version="1.1" xmlns="http://www.w3.org/2000/svg" stroke="#ffffff"><g id="SVGRepo_bgCarrier" stroke-width="0"></g><g id="SVGRepo_tracerCarrier" stroke-linecap="round" stroke-linejoin="round"></g><g id="SVGRepo_iconCarrier"> <title>ink</title> <path d="M15.625 14.969c-0.188-0.313-0.563-0.813-1.031-1.5-0.5-0.688-1.063-1.438-1.625-2.313-0.563-0.906-1.188-1.844-1.75-2.906-0.531-1.063-1-2.125-1.344-3.25-0.094-0.344-0.281-0.625-0.531-0.781s-0.563-0.219-0.875-0.188c-0.281-0.031-0.563 0.031-0.844 0.188-0.25 0.156-0.469 0.438-0.563 0.781-0.344 1.125-0.813 2.188-1.344 3.25s-1.125 2-1.688 2.906c-0.594 0.875-1.156 1.625-1.625 2.313-0.5 0.688-0.844 1.188-1.063 1.5-0.406 0.625-0.781 1.375-1 2.125-0.219 0.781-0.344 1.531-0.344 2.406 0 1.188 0.25 2.281 0.688 3.313 0.406 1.063 1 1.938 1.781 2.719 0.813 0.781 1.688 1.375 2.719 1.813s2.125 0.656 3.281 0.656c1.188 0 2.281-0.219 3.344-0.656 1.031-0.438 1.906-1.031 2.688-1.813s1.375-1.656 1.781-2.719c0.438-1.031 0.688-2.125 0.688-3.313 0-0.875-0.156-1.625-0.375-2.406-0.219-0.75-0.563-1.5-0.969-2.125zM5.813 23.5c-0.563 0-1.094-0.188-1.469-0.594-0.406-0.406-0.625-0.938-0.625-1.5 0-0.438 0.125-0.813 0.344-1.156 0.063-0.063 0.125-0.188 0.25-0.344s0.313-0.375 0.438-0.594c0.156-0.219 0.281-0.469 0.406-0.719s0.25-0.531 0.313-0.813c0.063-0.219 0.188-0.313 0.344-0.25 0.188-0.031 0.344 0.031 0.375 0.25 0.094 0.25 0.188 0.563 0.344 0.813 0.125 0.25 0.281 0.5 0.406 0.719 0.156 0.219 0.313 0.438 0.438 0.594s0.188 0.281 0.25 0.344c0.219 0.313 0.344 0.719 0.344 1.156 0 0.563-0.25 1.094-0.656 1.5-0.375 0.406-0.906 0.594-1.5 0.594z"></path> </g></svg>