<svg width="22" height="23" viewBox="0 0 22 23" fill="none" xmlns="http://www.w3.org/2000/svg">
<path fill-rule="evenodd" clip-rule="evenodd" d="M11 17.5C14.3137 17.5 17 14.8137 17 11.5C17 8.18629 14.3137 5.5 11 5.5C7.68629 5.5 5 8.18629 5 11.5C5 14.8137 7.68629 17.5 11 17.5ZM11 15.5C13.2091 15.5 15 13.7091 15 11.5C15 9.29086 13.2091 7.5 11 7.5C8.79086 7.5 7 9.29086 7 11.5C7 13.7091 8.79086 15.5 11 15.5Z" fill="#7F7F7F"/>
<path d="M17 4.5C16.4477 4.5 16 4.94772 16 5.5C16 6.05228 16.4477 6.5 17 6.5C17.5523 6.5 18 6.05228 18 5.5C18 4.94772 17.5523 4.5 17 4.5Z" fill="#7F7F7F"/>
<path fill-rule="evenodd" clip-rule="evenodd" d="M0.65396 3.77606C0 5.05953 0 6.73969 0 10.1V12.9C0 16.2603 0 17.9405 0.65396 19.2239C1.2292 20.3529 2.14708 21.2708 3.27606 21.846C4.55953 22.5 6.23969 22.5 9.6 22.5H12.4C15.7603 22.5 17.4405 22.5 18.7239 21.846C19.8529 21.2708 20.7708 20.3529 21.346 19.2239C22 17.9405 22 16.2603 22 12.9V10.1C22 6.73969 22 5.05953 21.346 3.77606C20.7708 2.64708 19.8529 1.7292 18.7239 1.15396C17.4405 0.5 15.7603 0.5 12.4 0.5H9.6C6.23969 0.5 4.55953 0.5 3.27606 1.15396C2.14708 1.7292 1.2292 2.64708 0.65396 3.77606ZM12.4 2.5H9.6C7.88684 2.5 6.72225 2.50156 5.82208 2.5751C4.94524 2.64674 4.49684 2.77659 4.18404 2.93597C3.43139 3.31947 2.81947 3.93139 2.43597 4.68404C2.27659 4.99684 2.14674 5.44524 2.0751 6.32208C2.00156 7.22225 2 8.38684 2 10.1V12.9C2 14.6132 2.00156 15.7777 2.0751 16.6779C2.14674 17.5548 2.27659 18.0032 2.43597 18.316C2.81947 19.0686 3.43139 19.6805 4.18404 20.064C4.49684 20.2234 4.94524 20.3533 5.82208 20.4249C6.72225 20.4984 7.88684 20.5 9.6 20.5H12.4C14.1132 20.5 15.2777 20.4984 16.1779 20.4249C17.0548 20.3533 17.5032 20.2234 17.816 20.064C18.5686 19.6805 19.1805 19.0686 19.564 18.316C19.7234 18.0032 19.8533 17.5548 19.9249 16.6779C19.9984 15.7777 20 14.6132 20 12.9V10.1C20 8.38684 19.9984 7.22225 19.9249 6.32208C19.8533 5.44524 19.7234 4.99684 19.564 4.68404C19.1805 3.93139 18.5686 3.31947 17.816 2.93597C17.5032 2.77659 17.0548 2.64674 16.1779 2.5751C15.2777 2.50156 14.1132 2.5 12.4 2.5Z" fill="#7F7F7F"/>
</svg>
