<svg width="24" height="23" viewBox="0 0 24 23" fill="none" xmlns="http://www.w3.org/2000/svg">
<path fill-rule="evenodd" clip-rule="evenodd" d="M2.79072 11.5C2.79072 6.35848 7.03881 2.19047 12.2791 2.19047C17.5193 2.19047 21.7674 6.35848 21.7674 11.5C21.7674 16.6414 17.5193 20.8095 12.2791 20.8095C10.4124 20.8095 8.67491 20.2818 7.20891 19.3704C6.93608 19.2009 6.60176 19.1556 6.29229 19.2461L3.07835 20.1873L4.28844 17.4091C4.43147 17.0807 4.40237 16.7046 4.21046 16.4013C3.31055 14.9784 2.79072 13.3004 2.79072 11.5ZM12.2791 0C5.8058 0 0.558164 5.14871 0.558164 11.5C0.558164 13.5131 1.08632 15.4081 2.01449 17.0558L0.0898286 21.4743C-0.0803169 21.865 -0.00489887 22.3169 0.283336 22.6338C0.57157 22.9509 1.02064 23.0757 1.43553 22.9542L6.45813 21.4836C8.1739 22.4485 10.1623 23 12.2791 23C18.7524 23 24 17.8512 24 11.5C24 5.14871 18.7524 0 12.2791 0ZM14.8381 13.8902L13.3711 14.9041C12.6841 14.5201 11.9244 13.9841 11.1625 13.2365C10.3703 12.4593 9.78309 11.6569 9.35009 10.9209L10.2824 10.1445C10.6825 9.81134 10.792 9.24963 10.5455 8.79505L9.35759 6.60458C9.19763 6.30962 8.9092 6.10243 8.57431 6.04191C8.2394 5.9814 7.89467 6.07418 7.63811 6.29387L7.28591 6.59545C6.43896 7.32071 5.93805 8.5125 6.3532 9.71923C6.78361 10.9702 7.70214 12.9391 9.58384 14.7854C11.6083 16.7717 13.6647 17.5539 14.8673 17.8577C15.8362 18.1024 16.7531 17.7744 17.3992 17.2578L18.0595 16.7299C18.3419 16.5042 18.4943 16.1574 18.4677 15.8009C18.441 15.4444 18.2388 15.123 17.9258 14.94L16.0523 13.8448C15.6739 13.6236 15.1984 13.6414 14.8381 13.8902Z" fill="#7F7F7F"/>
</svg>
